<svg width="8" height="7" viewBox="0 0 8 7" fill="none" xmlns="http://www.w3.org/2000/svg">
<g clip-path="url(#clip0_17_218)">
<path d="M3.00152 0.395696C2.99552 0.453139 3.00096 0.511201 3.01752 0.566531C3.03408 0.621862 3.06143 0.673366 3.098 0.718073C3.13456 0.76278 3.17961 0.799805 3.23056 0.827012C3.28151 0.854219 3.33733 0.871069 3.39482 0.876591L6.22675 1.16032L0.16053 6.15067C0.0707123 6.22413 0.0137544 6.33026 0.0021869 6.44572C-0.00938058 6.56117 0.0253899 6.67649 0.0988489 6.76631C0.172308 6.85613 0.278438 6.91308 0.393892 6.92465C0.509346 6.93622 0.624667 6.90145 0.714485 6.82799L6.77393 1.84318L6.48866 4.65941C6.47748 4.77445 6.51228 4.88924 6.58545 4.97871C6.65863 5.06818 6.76423 5.12505 6.8792 5.13692C6.99424 5.1481 7.10903 5.1133 7.1985 5.04013C7.28797 4.96695 7.34485 4.86135 7.35671 4.74638L7.749 0.830933C7.75524 0.779409 7.751 0.727155 7.73654 0.677312C7.72207 0.627469 7.69767 0.581065 7.66482 0.54089C7.63196 0.500716 7.59132 0.467599 7.54534 0.443531C7.49935 0.419463 7.44898 0.40494 7.39724 0.400836L3.48241 0.00238766C3.42497 -0.00360564 3.36691 0.00183443 3.31158 0.0183934C3.25625 0.0349525 3.20474 0.062303 3.16003 0.0988673C3.11533 0.135432 3.0783 0.180485 3.0511 0.231431C3.02389 0.282376 3.00704 0.338205 3.00152 0.395696Z" fill="#050505"/>
</g>
<defs>
<clipPath id="clip0_17_218">
<rect width="7.7518" height="6.92682" fill="white"/>
</clipPath>
</defs>
</svg>
