<svg width="576" height="582" viewBox="0 0 576 582" fill="none" xmlns="http://www.w3.org/2000/svg">
<path d="M356.787 415.879C375.403 452.188 390.793 486.144 409.824 517.906C420.808 536.222 422.852 552.216 411.804 569.5C408.611 574.724 401.362 580.303 395.646 580.689C376.073 582.076 356.34 581.495 336.671 581.012C332.424 581.012 328.273 578.142 323.898 576.594C325.718 572.337 326.389 565.888 329.55 564.211C345.93 555.472 342.865 543.026 338.522 529.031C332.839 510.715 328.496 491.98 323.291 473.535C320.609 463.861 321.791 456.67 329.678 449.157C339.161 439.999 346.505 428.777 356.787 415.879ZM449.503 0C466.107 19.5733 481.625 39.1785 498.612 57.3652C507.911 66.7548 518.275 75.0032 529.489 81.9375C539.388 88.3866 547.082 94.2551 539.898 107.411C538.504 110.213 538.131 113.421 538.845 116.473C543.123 132.596 547.786 148.364 552.479 164.229C553.533 167.777 554.364 172.775 556.918 174.258C575.437 185.06 567.008 198.894 560.813 211.405C548.52 236.267 527.478 252.615 504.615 266.804C494.334 273.253 491.587 264.708 488.649 258.001C475.015 227.883 459.465 198.409 448.608 167.292C438.391 137.916 420.254 120.245 391.771 110.668C376.03 105.38 361.118 97.5442 344.418 93.9326C364.822 104.767 384.875 116.311 405.693 126.179C411.884 128.979 417.44 133.03 422.021 138.082C426.601 143.134 430.107 149.081 432.323 155.555C478.112 273.468 524.358 391.199 571.062 508.747C579.971 531.093 572.404 551.698 569.211 572.852C568.7 576.237 560.717 580.784 556.119 580.881C517.355 581.526 478.559 581.107 439.764 581.365C429.546 581.365 426.64 576.786 428.332 567.241C431.046 552.182 433.25 536.995 452.632 534.576C454.037 534.415 455.378 532.931 456.495 531.835C457.111 531.016 457.565 530.085 457.836 529.094C457.229 528.417 456.496 527.063 456.049 527.159C435.645 531.738 424.436 521.42 415.145 504.232C401.446 478.952 384.843 455.283 371.368 430.066C363.833 415.846 360.064 399.529 354.764 384.567C352.273 390.243 349.271 397.949 345.6 405.301C320.055 456.024 257.087 485.045 198.526 473.018C165.542 466.246 165.893 466.278 166.372 432.291C166.532 416.619 170.874 400.27 161.295 387.694C156.537 414.039 154.398 441.417 146.16 466.795C138.944 488.69 126.172 509.005 113.399 528.739C105.289 541.638 102.096 551.699 112.952 563.759C116.145 567.177 117.646 571.95 121.03 578.044C116.372 579.478 111.595 580.482 106.758 581.043C81.2133 581.301 55.6685 580.849 30.124 581.333C20.0658 581.494 13.8384 578.269 11.8906 567.982C11.493 566.417 11.0024 564.878 10.4219 563.372C-4.80911 512.907 -4.74538 512.938 20.001 466.439C30.3784 446.802 40.4373 426.971 50.8467 404.302C35.3603 414.233 33.5724 408.848 31.6885 395.24C27.761 365.348 23.1947 336.069 32.1992 306.241C42.5493 272.052 64.9067 242.857 95.0703 224.143C105.192 217.693 124.096 220.918 137.73 224.69C164.488 231.849 182.241 227.915 197.536 201.119C220.718 160.425 248.881 122.664 274.873 83.6143C286.145 66.6528 287.996 66.1048 306.804 75.3271C311.4 77.9415 316.157 80.257 321.045 82.2598C322.47 82.7694 323.982 82.9829 325.491 82.8887C327 82.7944 328.474 82.3939 329.826 81.7109C351.092 66.4908 371.783 50.3361 393.305 35.4707C411.122 23.185 429.866 12.2535 449.503 0ZM160.954 476.565C187.042 479.532 210.032 483.433 233.118 484.465C258.662 485.593 258.662 484.466 252.883 509.134C251.847 515.473 250.461 521.749 248.732 527.933C243.655 542.282 244.198 554.859 256.3 565.79C259.014 568.241 259.493 573.11 261.121 576.883C257.385 578.237 253.713 580.687 249.913 580.816C235.608 581.3 221.175 581.364 206.902 580.978C194.13 580.655 186.148 574.303 181.358 561.437C176.066 547.004 169.018 533.292 160.379 520.613C146.33 500.363 146.202 492.237 160.954 476.565Z" fill="#FF6C00" fill-opacity="0.03"/>
</svg>
