<svg width="35" height="35" viewBox="0 0 35 35" fill="none" xmlns="http://www.w3.org/2000/svg">
<g clip-path="url(#clip0_17_209)">
<path d="M33.7423 11.6468C21.0668 12.8874 18.9451 11.7332 13.1001 0.417348C13.0177 0.257983 12.8824 0.132299 12.7174 0.0619011C12.5524 -0.00849689 12.368 -0.0192103 12.1959 0.0316033C12.0239 0.082417 11.8749 0.191582 11.7746 0.340333C11.6744 0.489083 11.629 0.668126 11.6464 0.846679C12.8877 13.5222 11.7336 15.644 0.417345 21.489C0.257989 21.5714 0.132314 21.7068 0.0619233 21.8718C-0.00846766 22.0368 -0.019177 22.2212 0.0316368 22.3932C0.0824506 22.5653 0.191613 22.7142 0.340358 22.8145C0.489103 22.9148 0.668138 22.9601 0.846686 22.9427C13.5228 21.702 15.6445 22.8562 21.4888 34.1722C21.5714 34.3314 21.7067 34.4569 21.8716 34.5272C22.0366 34.5974 22.2209 34.6081 22.3928 34.5573C22.5648 34.5065 22.7137 34.3975 22.814 34.2488C22.9143 34.1002 22.9597 33.9213 22.9425 33.7429C21.7018 21.0672 22.856 18.9455 34.1716 13.1005C34.331 13.0181 34.4567 12.8828 34.527 12.7178C34.5974 12.5528 34.6081 12.3684 34.5573 12.1963C34.5065 12.0243 34.3974 11.8753 34.2486 11.775C34.0999 11.6747 33.9208 11.6294 33.7423 11.6468Z" fill="#F5D3BA"/>
</g>
<defs>
<clipPath id="clip0_17_209">
<rect width="34.5889" height="34.5889" fill="white"/>
</clipPath>
</defs>
</svg>
