<svg width="123" height="124" viewBox="0 0 123 124" fill="none" xmlns="http://www.w3.org/2000/svg">
<path d="M76.2871 88.0527C80.2674 95.7402 83.5579 102.929 87.627 109.654C89.9756 113.532 90.4121 116.919 88.0498 120.578C87.367 121.684 85.8177 122.865 84.5957 122.947C80.4105 123.241 76.191 123.118 71.9854 123.016C71.0775 123.016 70.1901 122.408 69.2549 122.08C69.644 121.179 69.787 119.813 70.4629 119.458C73.9651 117.608 73.3103 114.973 72.3818 112.01C71.1666 108.132 70.2379 104.165 69.125 100.26C68.5515 98.2116 68.804 96.6893 70.4902 95.0986C72.518 93.1597 74.0887 90.7837 76.2871 88.0527ZM96.1113 0C99.6615 4.14415 102.98 8.29493 106.612 12.1455C108.6 14.1334 110.816 15.8796 113.214 17.3477C115.33 18.7131 116.975 19.9557 115.439 22.7412C115.141 23.3344 115.062 24.014 115.215 24.6602C116.13 28.0738 117.126 31.4125 118.13 34.7715C118.355 35.5225 118.533 36.5805 119.079 36.8945C123.039 39.1816 121.237 42.1109 119.912 44.7598C117.284 50.0237 112.784 53.4852 107.896 56.4893C105.697 57.8547 105.11 56.0451 104.481 54.625C101.566 48.2484 98.2412 42.0082 95.9199 35.4199C93.7352 29.2003 89.8576 25.4584 83.7676 23.4307C80.4017 22.311 77.2132 20.6523 73.6426 19.8877C78.0052 22.1816 82.2928 24.6257 86.7441 26.7148C88.0677 27.3077 89.256 28.1656 90.2354 29.2354C91.2146 30.305 91.9645 31.564 92.4385 32.9346C102.229 57.9 112.117 82.8268 122.104 107.715C124.008 112.446 122.39 116.809 121.707 121.288C121.597 122.005 119.891 122.967 118.908 122.987C110.62 123.124 102.324 123.035 94.0293 123.09C91.8445 123.09 91.2231 122.121 91.585 120.1C92.1653 116.911 92.6364 113.696 96.7803 113.184C97.0806 113.149 97.3675 112.836 97.6064 112.604C97.7379 112.43 97.8357 112.233 97.8936 112.023C97.7638 111.88 97.6063 111.593 97.5107 111.613C93.1483 112.583 90.7523 110.398 88.7656 106.759C85.8367 101.406 82.2864 96.3946 79.4053 91.0557C77.7941 88.0449 76.9878 84.5907 75.8545 81.4229C75.322 82.6244 74.6806 84.256 73.8955 85.8125C68.4336 96.5519 54.9696 102.697 42.4482 100.15C35.3957 98.7167 35.4708 98.7232 35.5732 91.5273C35.6074 88.2092 36.5355 84.7476 34.4873 82.085C33.47 87.6629 33.0134 93.4599 31.252 98.833C29.709 103.469 26.978 107.77 24.2471 111.948C22.5129 114.679 21.8301 116.809 24.1514 119.362C24.834 120.086 25.1544 121.097 25.8779 122.387C24.8821 122.69 23.8605 122.903 22.8262 123.021C17.3644 123.076 11.9022 122.981 6.44043 123.083C4.29006 123.117 2.95843 122.435 2.54199 120.257C2.45696 119.925 2.35266 119.599 2.22852 119.28C-1.02805 108.596 -1.01461 108.602 4.27637 98.7578C6.49522 94.6 8.6464 90.4011 10.8721 85.6016C7.56084 87.7044 7.1782 86.5637 6.77539 83.6826C5.93562 77.3536 4.95945 71.1542 6.88477 64.8389C9.09784 57.6002 13.8786 51.4193 20.3281 47.457C22.4924 46.0916 26.534 46.7735 29.4492 47.5723C35.1704 49.0879 38.9661 48.2553 42.2363 42.582C47.193 33.966 53.215 25.971 58.7725 17.7031C61.1825 14.112 61.5786 13.9958 65.5996 15.9482C66.5822 16.5017 67.5995 16.992 68.6445 17.416C68.9492 17.5239 69.2731 17.5697 69.5957 17.5498C69.9183 17.5299 70.2334 17.4444 70.5225 17.2998C75.0694 14.0773 79.4941 10.6572 84.0957 7.50977C87.9052 4.90866 91.9127 2.59428 96.1113 0ZM34.4141 100.901C39.9919 101.529 44.9077 102.356 49.8438 102.574C55.3056 102.813 55.3061 102.574 54.0703 107.797C53.8488 109.139 53.5523 110.468 53.1826 111.777C52.0971 114.815 52.2133 117.479 54.8008 119.793C55.3809 120.312 55.4839 121.343 55.832 122.142C55.0333 122.428 54.2479 122.946 53.4355 122.974C50.377 123.076 47.291 123.09 44.2393 123.008C41.5084 122.94 39.8015 121.595 38.7773 118.871C37.6458 115.815 36.1383 112.912 34.291 110.228C31.2871 105.94 31.2601 104.219 34.4141 100.901Z" fill="#FF6C00"/>
</svg>
