<svg width="22" height="22" viewBox="0 0 22 22" fill="none" xmlns="http://www.w3.org/2000/svg">
<path fill-rule="evenodd" clip-rule="evenodd" d="M4.74119 11C4.74119 10.2855 4.85979 9.60044 5.07171 8.95797L1.36436 6.12701C0.641802 7.59397 0.234802 9.24706 0.234802 11C0.234802 12.7516 0.641458 14.4035 1.36282 15.8696L5.0681 13.0331C4.85824 12.3936 4.74119 11.7111 4.74119 11Z" fill="#FBBC05"/>
<path fill-rule="evenodd" clip-rule="evenodd" d="M11.2504 4.50003C12.8026 4.50003 14.2046 5.05003 15.3061 5.94997L18.5106 2.75C16.5579 1.04998 14.0544 0 11.2504 0C6.89715 0 3.15577 2.48944 1.36432 6.127L5.07149 8.95795C5.92571 6.36505 8.36066 4.50003 11.2504 4.50003Z" fill="#EA4335"/>
<path fill-rule="evenodd" clip-rule="evenodd" d="M11.2504 17.5C8.36083 17.5 5.92588 15.635 5.07166 13.0421L1.36432 15.8725C3.15577 19.5106 6.89715 22 11.2504 22C13.9371 22 16.5024 21.0459 18.4276 19.2584L14.9086 16.538C13.9157 17.1634 12.6653 17.5 11.2504 17.5Z" fill="#34A853"/>
<path fill-rule="evenodd" clip-rule="evenodd" d="M21.7652 11C21.7652 10.35 21.665 9.64992 21.5148 9.00006H11.2504V13.25H17.1588C16.8633 14.6991 16.0593 15.813 14.9086 16.538L18.4276 19.2584C20.4499 17.3815 21.7652 14.5855 21.7652 11Z" fill="#4285F4"/>
</svg>
